<svg xmlns="http://www.w3.org/2000/svg" viewBox="0 0 300 300" enable-background="new 0 0 300 300"><style>.st1{display:inline}.st2{fill:#22205f}.st3{fill:#243e8c}.st4{fill:#fff}.st5{fill:none;stroke:#e6e7e8;stroke-miterlimit:10}.st8{display:inline}.st8,.st9{fill-rule:evenodd;clip-rule:evenodd;fill:#ffcd34}.st10{fill:#fdb61c}.st15{fill:#fcfcfe}</style><switch><g><path class="st2" d="M227.2 42.6h-7.1v218.8h7.1c11.3 0 20.6-7.7 20.6-17.1V59.7c0-9.4-9.2-17.1-20.6-17.1z" id="Layer_13"/><path class="st3" d="M225.2 42.6H83.8v218.8h141.4c9.4 0 17.1-7.7 17.1-17.1V59.7c0-9.4-7.7-17.1-17.1-17.1z" id="Layer_2"/><path class="st4" d="M220.8 254.5H113.1c-8.5 0-15.5-7-15.5-15.5V62.6c0-8.5 7-15.5 15.5-15.5h107.7c8.5 0 15.5 7 15.5 15.5v176.3c0 8.6-7 15.6-15.5 15.6z" id="Layer_3"/><g id="Layer_5"><path class="st5" d="M220.1 129.8v124.7M211.1 50.7v118.5M211.1 200.5v52.9M227.3 174v34.2M227.3 48.5v87.2M220.1 70.5v26.3"/></g><path class="st2" d="M197 42.6h-5.9v218.8h5.9c9.4 0 17.1-7.7 17.1-17.1V59.7c.1-9.4-7.6-17.1-17.1-17.1z" id="Layer_11"/><path class="st3" d="M191.2 43H93v218.4h98.2c9.4 0 17.1-7.7 17.1-17.1V60c0-9.4-7.7-17-17.1-17z" id="Layer_4"/><g id="Layer_14"><path class="st2" d="M97.6 122.1H84.4c-1.7 0-3-1.3-3-3v-.2c0-1.7 1.3-3 3-3h13.1c1.7 0 3 1.3 3 3v.2c.1 1.6-1.3 3-2.9 3zM97.6 93.9H84.4c-1.7 0-3-1.3-3-3v-.2c0-1.7 1.3-3 3-3h13.1c1.7 0 3 1.3 3 3v.2c.1 1.7-1.3 3-2.9 3zM121.1 122.1h-12.2c-1.7 0-3-1.3-3-3v-.2c0-1.7 1.3-3 3-3h12.2c1.7 0 3 1.3 3 3v.2c0 1.6-1.3 3-3 3zM116.4 140.8h-13.1c-1.7 0-3-1.3-3-3v-.2c0-1.7 1.3-3 3-3h13.1c1.7 0 3 1.3 3 3v.2c.1 1.7-1.3 3-3 3zM107.6 131.3H94.5c-1.7 0-3-1.3-3-3v-.2c0-1.7 1.3-3 3-3h13.1c1.7 0 3 1.3 3 3v.2c0 1.6-1.3 3-3 3zM111.6 178.3h-7.2c-1.7 0-3-1.3-3-3v-.3c0-1.7 1.3-3 3-3h7.2c1.7 0 3 1.3 3 3v.2c0 1.7-1.4 3.1-3 3.1zM129.4 178.3h-7.2c-1.7 0-3-1.3-3-3v-.3c0-1.7 1.3-3 3-3h7.2c1.7 0 3 1.3 3 3v.2c.1 1.7-1.3 3.1-3 3.1zM158.4 140.8h-13.1c-1.7 0-3-1.3-3-3v-.2c0-1.7 1.3-3 3-3h13.1c1.7 0 3 1.3 3 3v.2c0 1.7-1.3 3-3 3zM193.3 159.7h-13.1c-1.7 0-3-1.3-3-3v-.2c0-1.7 1.3-3 3-3h13.1c1.7 0 3 1.3 3 3v.2c0 1.6-1.3 3-3 3zM165.3 168.9h-12.9c-1.7 0-3-1.3-3-3v-.2c0-1.7 1.3-3 3-3h12.9c1.7 0 3 1.3 3 3v.2c0 1.6-1.4 3-3 3zM210 131.4h-5.7c-1.7 0-3-1.3-3-3v-.2c0-1.7 1.3-3 3-3h5.7c1.7 0 3 1.3 3 3v.2c0 1.6-1.3 3-3 3zM157.6 122.1h-5.7c-1.7 0-3-1.3-3-3v-.2c0-1.7 1.3-3 3-3h5.7c1.7 0 3 1.3 3 3v.2c0 1.6-1.3 3-3 3zM110.1 206.4h-5.7c-1.7 0-3-1.3-3-3v-.2c0-1.7 1.3-3 3-3h5.7c1.7 0 3 1.3 3 3v.2c0 1.7-1.4 3-3 3zM100.4 215.8h-5.7c-1.7 0-3-1.3-3-3v-.2c0-1.7 1.3-3 3-3h5.7c1.7 0 3 1.3 3 3v.2c0 1.6-1.4 3-3 3zM90 225.2h-5.7c-1.7 0-3-1.3-3-3v-.2c0-1.7 1.3-3 3-3H90c1.7 0 3 1.3 3 3v.2c0 1.7-1.3 3-3 3zM208.9 178.3h-7.2c-1.7 0-3-1.3-3-3v-.3c0-1.7 1.3-3 3-3h7.2c1.7 0 3 1.3 3 3v.2c0 1.7-1.3 3.1-3 3.1zM133.1 131.6h-14.8c-1.7 0-3-1.3-3-3v-.2c0-1.7 1.3-3 3-3h14.8c1.7 0 3 1.3 3 3v.2c0 1.7-1.3 3-3 3zM166 187.6h-14.8c-1.7 0-3-1.3-3-3v-.2c0-1.7 1.3-3 3-3H166c1.7 0 3 1.3 3 3v.2c0 1.7-1.3 3-3 3zM173 150.4h-15.6c-1.8 0-3.2-1.4-3.2-3.2v-.2c0-1.8 1.4-3.2 3.2-3.2H173c1.8 0 3.2 1.4 3.2 3.2v.2c0 1.8-1.4 3.2-3.2 3.2zM148.7 159.9h-20.4c-1.8 0-3.2-1.4-3.2-3.2v-.2c0-1.8 1.4-3.2 3.2-3.2h20.4c1.8 0 3.2 1.4 3.2 3.2v.2c-.1 1.7-1.5 3.2-3.2 3.2zM169.5 197.1h-11.7c-1.7 0-3-1.3-3-3v-.2c0-1.7 1.3-3 3-3h11.7c1.7 0 3 1.3 3 3v.2c0 1.6-1.4 3-3 3zM172.9 131.6h-8.3c-1.7 0-3-1.3-3-3v-.2c0-1.7 1.3-3 3-3h8.3c1.7 0 3 1.3 3 3v.2c0 1.7-1.3 3-3 3zM141.2 122.1h-9.9c-1.7 0-3-1.3-3-3v-.2c0-1.7 1.3-3 3-3h9.9c1.7 0 3 1.3 3 3v.2c0 1.6-1.3 3-3 3zM122.9 93.9h-14.5c-1.7 0-3-1.3-3-3v-.2c0-1.7 1.3-3 3-3h14.5c1.7 0 3 1.3 3 3v.2c0 1.7-1.4 3-3 3zM168.7 93.9h-14.5c-1.7 0-3-1.3-3-3v-.2c0-1.7 1.3-3 3-3h14.5c1.7 0 3 1.3 3 3v.2c0 1.7-1.3 3-3 3zM143.6 93.9h-9.9c-1.7 0-3-1.3-3-3v-.2c0-1.7 1.3-3 3-3h9.9c1.7 0 3 1.3 3 3v.2c0 1.7-1.4 3-3 3zM97.6 103.1H84.4c-1.7 0-3-1.3-3-3v-.2c0-1.7 1.3-3 3-3h13.1c1.7 0 3 1.3 3 3v.2c.1 1.7-1.3 3-2.9 3zM122.9 103.1h-14.5c-1.7 0-3-1.3-3-3v-.2c0-1.7 1.3-3 3-3h14.5c1.7 0 3 1.3 3 3v.2c0 1.7-1.4 3-3 3zM177.4 103.3h-22.9c-1.7 0-3-1.3-3-3v-.2c0-1.7 1.3-3 3-3h22.9c1.7 0 3 1.3 3 3v.2c0 1.7-1.3 3-3 3zM144 103.3h-9.9c-1.7 0-3-1.3-3-3v-.2c0-1.7 1.3-3 3-3h9.9c1.7 0 3 1.3 3 3v.2c0 1.7-1.3 3-3 3zM113.8 168.9h-9.9c-1.7 0-3-1.3-3-3v-.2c0-1.7 1.3-3 3-3h9.9c1.7 0 3 1.3 3 3v.2c0 1.6-1.3 3-3 3zM113.8 150.2h-9.9c-1.7 0-3-1.3-3-3v-.2c0-1.7 1.3-3 3-3h9.9c1.7 0 3 1.3 3 3v.2c0 1.7-1.3 3-3 3zM153.9 131.6H144c-1.7 0-3-1.3-3-3v-.2c0-1.7 1.3-3 3-3h9.9c1.7 0 3 1.3 3 3v.2c0 1.7-1.3 3-3 3zM193.7 131.3h-9.9c-1.7 0-3-1.3-3-3v-.2c0-1.7 1.3-3 3-3h9.9c1.7 0 3 1.3 3 3v.2c0 1.6-1.4 3-3 3zM210 150.2h-4.6c-1.7 0-3-1.3-3-3v-.4c0-1.7 1.3-3 3-3h4.6c1.7 0 3 1.3 3 3v.4c0 1.7-1.3 3-3 3zM169.5 159.7h-9.9c-1.7 0-3-1.3-3-3v-.2c0-1.7 1.3-3 3-3h9.9c1.7 0 3 1.3 3 3v.2c0 1.6-1.4 3-3 3zM123.8 187.6h-9.9c-1.7 0-3-1.3-3-3v-.2c0-1.7 1.3-3 3-3h9.9c1.7 0 3 1.3 3 3v.2c0 1.7-1.3 3-3 3zM134.6 140.8h-7.5c-1.7 0-3-1.3-3-3v-.2c0-1.7 1.3-3 3-3h7.5c1.7 0 3 1.3 3 3v.2c0 1.7-1.4 3-3 3zM117 159.7h-12.8c-1.7 0-3-1.3-3-3v-.2c0-1.7 1.3-3 3-3H117c1.7 0 3 1.3 3 3v.2c0 1.6-1.3 3-3 3zM146.3 150.2h-5.7c-1.7 0-3-1.3-3-3v-.2c0-1.7 1.3-3 3-3h5.7c1.7 0 3 1.3 3 3v.2c.1 1.7-1.3 3-3 3zM129.8 150.2h-5.3c-1.7 0-3-1.3-3-3v-.2c0-1.7 1.3-3 3-3h5.3c1.7 0 3 1.3 3 3v.2c0 1.7-1.3 3-3 3zM209.4 159.7h-5.3c-1.7 0-3-1.3-3-3v-.2c0-1.7 1.3-3 3-3h5.3c1.7 0 3 1.3 3 3v.2c0 1.6-1.3 3-3 3zM143.2 178.3h-3.1c-1.7 0-3-1.3-3-3v-.3c0-1.7 1.3-3 3-3h3.1c1.7 0 3 1.3 3 3v.2c0 1.7-1.3 3.1-3 3.1zM140.8 187.6h-6.3c-1.7 0-3-1.3-3-3v-.2c0-1.7 1.3-3 3-3h6.3c1.7 0 3 1.3 3 3v.2c0 1.7-1.4 3-3 3zM191 178.3h-3.1c-1.7 0-3-1.3-3-3v-.3c0-1.7 1.3-3 3-3h3.1c1.7 0 3 1.3 3 3v.2c0 1.7-1.4 3.1-3 3.1zM204.1 187.6H201c-1.7 0-3-1.3-3-3v-.2c0-1.7 1.3-3 3-3h3.1c1.7 0 3 1.3 3 3v.2c0 1.7-1.3 3-3 3zM177 178.3h-23.1c-1.7 0-3-1.3-3-3v-.3c0-1.7 1.3-3 3-3H177c1.7 0 3 1.3 3 3v.2c0 1.7-1.3 3.1-3 3.1z"/><path class="st2" d="M199.9 187.6h-23.1c-1.7 0-3-1.3-3-3v-.2c0-1.7 1.3-3 3-3h23.1c1.7 0 3 1.3 3 3v.2c0 1.7-1.3 3-3 3zM130 197.1h-16.1c-1.7 0-3-1.3-3-3v-.2c0-1.7 1.3-3 3-3H130c1.7 0 3 1.3 3 3v.2c0 1.6-1.4 3-3 3zM193.2 197.1h-13c-1.7 0-3-1.3-3-3v-.2c0-1.7 1.3-3 3-3h13c1.7 0 3 1.3 3 3v.2c0 1.6-1.4 3-3 3zM147 197.1h-6.5c-1.7 0-3-1.3-3-3v-.2c0-1.7 1.3-3 3-3h6.5c1.7 0 3 1.3 3 3v.2c0 1.6-1.3 3-3 3zM141.6 168.9H124c-1.7 0-3-1.3-3-3v-.2c0-1.7 1.3-3 3-3h17.6c1.7 0 3 1.3 3 3v.2c0 1.7-1.3 3-3 3zM186.4 168.8h-10.6c-1.7 0-3-1.3-3-3v-.2c0-1.7 1.3-3 3-3h10.6c1.7 0 3 1.3 3 3v.2c0 1.6-1.3 3-3 3zM194.7 150.2h-10.6c-1.7 0-3-1.3-3-3v-.2c0-1.7 1.3-3 3-3h10.6c1.7 0 3 1.3 3 3v.2c0 1.7-1.3 3-3 3zM207.4 168.8h-10.6c-1.7 0-3-1.3-3-3v-.2c0-1.7 1.3-3 3-3h10.6c1.7 0 3 1.3 3 3v.2c0 1.6-1.3 3-3 3z"/><path class="st2" d="M199.9 187.6h-23.1c-1.7 0-3-1.3-3-3v-.2c0-1.7 1.3-3 3-3h23.1c1.7 0 3 1.3 3 3v.2c0 1.7-1.3 3-3 3z"/><path class="st2" d="M204.1 187.6H201c-1.7 0-3-1.3-3-3v-.2c0-1.7 1.3-3 3-3h3.1c1.7 0 3 1.3 3 3v.2c0 1.7-1.3 3-3 3zM147 197.1h-6.5c-1.7 0-3-1.3-3-3v-.2c0-1.7 1.3-3 3-3h6.5c1.7 0 3 1.3 3 3v.2c0 1.6-1.3 3-3 3zM130 197.1h-16.1c-1.7 0-3-1.3-3-3v-.2c0-1.7 1.3-3 3-3H130c1.7 0 3 1.3 3 3v.2c0 1.6-1.4 3-3 3zM166 187.6h-14.8c-1.7 0-3-1.3-3-3v-.2c0-1.7 1.3-3 3-3H166c1.7 0 3 1.3 3 3v.2c0 1.7-1.3 3-3 3zM140.8 187.6h-6.3c-1.7 0-3-1.3-3-3v-.2c0-1.7 1.3-3 3-3h6.3c1.7 0 3 1.3 3 3v.2c0 1.7-1.4 3-3 3z"/><defs><filter id="Adobe_OpacityMaskFilter" filterUnits="userSpaceOnUse" x="104" y="185.7" width="91.1" height="36.1"><feColorMatrix values="-1 0 0 0 1 0 -1 0 0 1 0 0 -1 0 1 0 0 0 1 0" color-interpolation-filters="sRGB" result="source"/><feFlood result="back" flood-color="#fff" flood-opacity="1"/><feBlend in="source" in2="back"/></filter></defs><path class="st2" d="M116.4 140.8h-13.1c-1.7 0-3-1.3-3-3v-.2c0-1.7 1.3-3 3-3h13.1c1.7 0 3 1.3 3 3v.2c.1 1.7-1.3 3-3 3zM111.6 178.3h-7.2c-1.7 0-3-1.3-3-3v-.3c0-1.7 1.3-3 3-3h7.2c1.7 0 3 1.3 3 3v.2c0 1.7-1.4 3.1-3 3.1zM210 131.4h-5.7c-1.7 0-3-1.3-3-3v-.2c0-1.7 1.3-3 3-3h5.7c1.7 0 3 1.3 3 3v.2c0 1.6-1.3 3-3 3zM110.1 206.4h-5.7c-1.7 0-3-1.3-3-3v-.2c0-1.7 1.3-3 3-3h5.7c1.7 0 3 1.3 3 3v.2c0 1.7-1.4 3-3 3zM100.4 215.8h-5.7c-1.7 0-3-1.3-3-3v-.2c0-1.7 1.3-3 3-3h5.7c1.7 0 3 1.3 3 3v.2c0 1.6-1.4 3-3 3zM90 225.2h-5.7c-1.7 0-3-1.3-3-3v-.2c0-1.7 1.3-3 3-3H90c1.7 0 3 1.3 3 3v.2c0 1.7-1.3 3-3 3zM133.1 131.6h-14.8c-1.7 0-3-1.3-3-3v-.2c0-1.7 1.3-3 3-3h14.8c1.7 0 3 1.3 3 3v.2c0 1.7-1.3 3-3 3zM172.9 131.6h-8.3c-1.7 0-3-1.3-3-3v-.2c0-1.7 1.3-3 3-3h8.3c1.7 0 3 1.3 3 3v.2c0 1.7-1.3 3-3 3zM113.8 150.2h-9.9c-1.7 0-3-1.3-3-3v-.2c0-1.7 1.3-3 3-3h9.9c1.7 0 3 1.3 3 3v.2c0 1.7-1.3 3-3 3zM153.9 131.6H144c-1.7 0-3-1.3-3-3v-.2c0-1.7 1.3-3 3-3h9.9c1.7 0 3 1.3 3 3v.2c0 1.7-1.3 3-3 3zM193.7 131.3h-9.9c-1.7 0-3-1.3-3-3v-.2c0-1.7 1.3-3 3-3h9.9c1.7 0 3 1.3 3 3v.2c0 1.6-1.4 3-3 3zM123.8 187.6h-9.9c-1.7 0-3-1.3-3-3v-.2c0-1.7 1.3-3 3-3h9.9c1.7 0 3 1.3 3 3v.2c0 1.7-1.3 3-3 3zM141.6 168.9H124c-1.7 0-3-1.3-3-3v-.2c0-1.7 1.3-3 3-3h17.6c1.7 0 3 1.3 3 3v.2c0 1.7-1.3 3-3 3zM207.4 168.8h-10.6c-1.7 0-3-1.3-3-3v-.2c0-1.7 1.3-3 3-3h10.6c1.7 0 3 1.3 3 3v.2c0 1.6-1.3 3-3 3z"/></g><path class="st2" d="M208.3 60h5.8v181.9h-5.8z" id="Layer_15"/><g id="Layer_10"><g id="_x34_dRgxu.tif"><path class="st10" d="M190.4 127.9c-.3 1.8-.7 3.7-1.5 5.4-1.4 3-3.3 5.7-5.9 7.8-.8.7-1.1 1.3-1 2.4.4 3.5-.1 7-1.2 10.4-1.1 3.2-2.5 6.3-4.5 9-.5.6-1.1 1-1.8 1.3-5.7 1.9-8.8 6-10.1 11.7-.5 2.1-.5 4.3-.3 6.5.1 1.5-.3 2.8-1.2 3.9-2.7 3.4-6.1 5.9-9.9 8-1.8 1-3.7 1.8-5.6 2.4-.5.2-.9.3-1.5.1-6-2-11.3-5.1-15.5-10-1.3-1.5-1.8-3.1-1.6-5 .3-4.3-.5-8.3-2.9-11.9-1.9-2.8-4.5-4.8-7.8-5.7-.6-.2-1.1-.5-1.5-1-2.9-3.7-4.6-7.9-5.5-12.4-.5-2.6-.7-5.2-.3-7.9.1-.6-.2-.9-.6-1.3-3.9-3.4-6.8-7.5-7.6-12.7-.3-1.6-.3-3.3.2-4.9.6-1.9 1.8-3.2 3.7-3.8.4-.1.8-.2 1.2-.1 2.6.7 5 0 7.3-1.1 2.5-1.2 5-2.6 7.3-4.1 2.5-1.7 5.4-2.4 8.4-3.1 4-.9 8.1-1.3 12.2-1.4 2.3-.2 4.7 0 7-.1 5.3 0 10.5.6 15.6 2.2 1.9.6 3.7 1.3 5.3 2.4 2.5 1.7 5.2 3.1 8 4.4 1.7.8 3.5 1.2 5.3.8 3.5-.7 6.2 2.3 6.2 5 0 .1 0 .3.1.4v2.4z"/><path d="M188.9 127.1c-.2 4.2-2 7.7-4.7 10.9-1 1.2-2.2 2.2-3.3 3.1-.3.2-.5.5-.4.9 1 5.8-.4 11.1-2.9 16.2-.3.5-.6 1-.8 1.5-.9 1.7-2.1 2.8-4 3.6-5.4 2.1-8.3 6.5-9.7 12-.5 2.2-.7 4.4-.4 6.7.2 1.3-.3 2.5-1.1 3.5-3.9 4.7-8.9 7.6-14.5 9.6-.4.1-.8.1-1.1 0-5.6-2-10.6-4.9-14.5-9.5-1.3-1.5-1.2-3.1-1.1-4.9.4-8.1-4.1-15.9-11.5-18-.5-.2-.9-.4-1.3-.9-2.8-3.9-4.5-8.2-5.2-12.9-.3-2.3-.4-4.7.1-7 .1-.6-.3-.8-.6-1-2.9-2.3-5.3-5.1-6.7-8.6-.9-2.3-1.5-4.7-1-7.2.3-1.6 1.1-2.7 2.6-3.4.8-.3 1.5 0 2.2.1 2.3.3 4.4-.4 6.4-1.3 2.7-1.2 5.2-2.6 7.6-4.3 2.8-1.8 5.9-2.6 9.1-3.2 6-1.2 12.2-1.5 18.3-1.2 5.7.2 11.3.9 16.6 2.9 1.2.4 2.2 1.1 3.2 1.7 3 1.9 6.1 3.7 9.5 4.9 1.7.6 3.5.7 5.3.4 1.2-.3 2.6.5 3.3 1.7.5 1.1.7 2.4.6 3.7z" fill="#263d8e"/><path class="st10" d="M178.1 128.2c-3.9 2-5.3 6.2-3.5 9.9 2.2 4.4 1.9 8.9.1 13.3-.7 1.7-1.5 3.3-2.5 4.8-.1.2-.2.5-.6.7.2-1.5.4-2.9.4-4.3 0-1.1-.4-1.8-1.3-2.4-1.6-1.1-3.3-1.6-5.2-1.7-1.4-.1-2.7-.3-4.1 0 .1.5.5.6.9.7 1.8.7 3.4 1.7 4.7 3.2.5.5.7 1.1.7 1.8.3 5.5-1.9 9.9-6.2 13.3-.2.2-.4.5-.7 0-.7-1.2-1.9-1.5-3.2-1.6-1.8-.2-3.7-.1-5.5-.2-1.1 0-2.1-.2-3.1-.6-1.3-.6-1.4-1.5-.3-2.4 2.6-2 5.1-4 7.5-6.2 1.8-1.6 2-3.7 1.4-5.7-.2-.8-.3-1.5-.1-2.3.3-1-.2-1.7-.8-2.6 1 .2 1.8.2 2.6.4 1.8.4 3.3-.1 4.7-1.1 2-1.3 3.4-3.2 4.5-5.2.7-1.3 1.6-2.1 3.2-1.5.1.1.4 0 .5-.1.1-.2 0-.4-.1-.6-.6-1.1-1.9-1.7-3.1-1.5-3.7.6-7.1 2.1-10.6 3.3-.7.3-1.4.5-2.1.8-1.1.4-1.5.1-1.8-1 0-.2 0-.4-.1-.5-.2-.5-.6-.7-.9-.2-.7.9-1.4 1.9-1.8 3-.3.9.1 1.6.7 2.2.4.5.4.7-.1 1.1-1.1.9-1.7 2.1-1.8 3.6 0 .3-.1.6.2.7.3.1.4-.2.6-.4.4-.6 1-1.1 1.7-1.4.5-.3 1-.7 1.6-.1.4.4.2 1.6-.2 2.1-.4.4-.9.8-1.3 1.3-.3.3-.5.7-.5 1.3.5-.2 1-.3 1.5-.4.6-.1 1.2-.1 1.4.7.2.7.1 1.2-.8 1.5-2.1.7-4.2 1.4-6.3 2.2-1.6.5-3.1.5-4.6 0-2.1-.7-4.2-1.5-6.3-2.2-.7-.2-.8-.6-.7-1.3.1-.7.6-.9 1.2-.8.4.1.8.2 1.3.4.1 0 .3.2.4 0 .1-.1.1-.3 0-.4-.3-.7-.9-1.3-1.5-1.8-.2-.2-.5-.4-.6-.7-.1-.6-.3-1.2.2-1.7s1.1 0 1.5.2c.6.3 1.2.8 1.6 1.4.1.2.3.6.6.4.4-.1.3-.5.3-.8-.1-1.4-.8-2.4-1.7-3.4-.5-.5-.5-.8-.1-1.3.8-1 .9-2 .1-3.1-.4-.6-.8-1.3-1.1-1.9-.1-.2-.3-.5-.6-.4-.3 0-.4.3-.5.6-.7 1.8-.7 1.8-2.6 1.1-3.4-1.3-6.7-2.7-10.2-3.5-.6-.1-1.2-.2-1.8-.4-1.2-.2-2.6.5-3.1 1.6-.2.4-.1.6.3.6.1 0 .3 0 .4-.1 1.2-.3 1.9 0 2.6 1.1 1 1.6 2 3.2 3.4 4.6 2.3 2.3 4.9 2.8 7.9 1.9.2-.1.4-.2.7-.1.1.1 0 .3-.1.4-.8.8-.8 1.7-.4 2.7.2.5.3 1-.2 1.4-.3.4-.2.9-.2 1.4-.2 2.2.6 3.9 2.3 5.3 2.3 1.8 4.5 3.6 6.7 5.4.4.4 1.1.6.9 1.4-.2.7-.7 1-1.3 1.3-1.4.5-2.8.5-4.3.5-1.6 0-3.2-.1-4.8.3-1.1.2-2 .7-2.6 1.8-3.3-2.5-5.7-5.6-6.4-9.8-.2-1.2-.1-2.3-.2-3.5-.1-1.1.4-2 1.2-2.7 1.3-1.2 2.7-2.1 4.4-2.7.3-.1.7-.1.6-.5-.1-.3-.5-.3-.7-.3-2.7 0-5.4.1-7.9 1.5-1.4.8-2 1.8-1.8 3.5.2 1.2.2 2.4.5 3.8-1.1-1.4-1.7-2.7-2.4-4-1.5-3.1-2.5-6.3-2.2-9.8.1-1.7.5-3.4 1.4-4.9 1.8-3.2.5-7.4-1.5-9-.5-.4-1-.8-1.8-1.2.4 1 .9 1.8.9 2.7 0 .4.1.7 0 1-.3 1.1-.1 2 .5 2.9.1.2.3.3.2.5-.2.2-.4.1-.7.1-.8-.1-1.5-.3-2.2-.7-2.8-1.4-4.8-3.6-5.9-6.6-.3-.9-.4-1.8 0-2.8.3-.7 1-1.1 1.7-.9 3.1.9 6 .2 8.8-1 1.9-.8 3.6-1.8 5.1-3.2 2-1.7 4.5-2.4 7-3.1 3.4-.9 6.9-1.5 10.4-1 2.5.4 5 .6 7.5.5 1.9-.1 3.7-.6 5.6-.6 5-.1 9.8.9 14.2 3.2.7.4 1.3 1 2 1.4 3.5 2.7 7.4 4.4 11.9 4.1.4 0 .9-.2 1.3-.3 1-.3 1.6 0 1.9 1 .3.8.3 1.6 0 2.4-1.3 3.5-3.5 6.1-7.2 7.3-.5.2-1.2.5-1.5.1-.3-.3.3-.8.5-1.2.2-.4.4-.9.3-1.4-.1-1.5.1-3 1.1-4.6zM136.6 178.9c.5 3.4 3.2 4.2 5.8 5 4 1.2 7.7.3 11.2-1.7.9-.5 1.3-1.4 1.6-2.2.1-.3.2-.7.3-1 1.6 1.3 1.7 3.5.2 5-2 2.1-4.5 3.3-7.4 3.8-4 .6-7.7-.1-11-2.7-.4-.4-.8-.7-1.2-1.2-1.2-1.5-1.1-3.5.5-5z"/><path class="st4" d="M146 182.7c-2.3 0-4.4-.7-6.4-1.9-.8-.5-1.5-2.1-1.3-3 0-.2.1-.4.3-.4.2 0 .4.1.5.3.3.5.7.9 1.2 1.3.4.3.6.4.8-.2.2-.6.4-.6.9-.3 2.7 1.7 5.5 1.7 8.2 0 .5-.3.7-.3.9.2.2.6.5.5.8.2.4-.4.8-.9 1.2-1.3.1-.2.3-.3.5-.3.3.1.3.3.3.5.1 1.1-.6 2.5-1.5 3-2.2 1.3-4.3 1.9-6.4 1.9z"/><path d="M139.2 168.5c-.1-.5.1-.7.7-.7 1.3 0 2.6-.1 3.9-.5.9-.3 1.7-.7 2.3-1.5.1-.2.2-.5.5-.1 1.3 1.7 3.3 1.9 5.2 2.1h.8c1.1 0 1.2.1 1 1.1-.1.7-.3 1.4-.6 2.1-.1.2-.2.4-.5.3-.2 0-.2-.2-.3-.4-.1-.5-.3-.9-.3-1.4-.1-.8-.5-1-1.3-.9-1.9.3-3.9.4-5.9.3l-3-.3c-.5-.1-.8.1-.8.6-.1.6-.3 1.1-.4 1.7 0 .2-.1.3-.3.4-.3.1-.4-.1-.5-.3-.3-.7-.5-1.5-.5-2.5z" fill="#fefeff"/><path d="M156.3 168c2.2.1 2.2.1 1.3 2-.6 1.3-1.4 2.5-2.3 3.6-.1.2-.3.4-.5.4-.3-.1-.2-.4-.2-.6.2-1.6.5-3.2.5-4.9 0-1.1.8-.4 1.2-.5z" fill="#fdfdfe"/><path d="M136.4 167.9c1.2 0 1.2 0 1.3 1.2.1 1.4.3 2.8.5 4.3 0 .2.1.4-.1.5-.2.1-.4-.1-.5-.2-1.3-1.5-2.3-3.1-2.9-4.9-.2-.4 0-.7.5-.7.3-.1.8-.1 1.2-.2z" fill="#fcfdfe"/><path class="st15" d="M135 142.5c-1.2 1.3-2.4 1.9-3.9 1.7-1.6-.2-3.3-1.9-4-3.9.7 0 1.3.4 2 .5.3.1.3.3.4.5.4 1.6 1.9 2 3.1 1 .9-.6 1.5.3 2.4.2zM157.8 142.6c1-.5 1.8-.7 2.8.1.7.6 2 .2 2.3-.7.3-1.2 1.2-1.4 2.1-1.6.1 0 .3-.1.4-.1 0 1.3-1.6 3.2-3.1 3.7-1.5.6-3 .2-4.5-1.4z"/></g></g><path d="M74.8 261.6h9V42.8h-9c-9.4 0-17.1 7.7-17.1 17.1v184.6c0 9.4 7.7 17.1 17.1 17.1z" fill="#fdb61a" id="Layer_7"/><g id="Layer_8" opacity=".15"><ellipse cx="68.9" cy="90.2" rx="6.2" ry="6.6"/><ellipse cx="68.9" cy="64.1" rx="6.2" ry="6.6"/><ellipse cx="68.9" cy="119.7" rx="6.2" ry="6.6"/><ellipse cx="68.9" cy="149.2" rx="6.2" ry="6.6"/><ellipse cx="68.9" cy="178.7" rx="6.2" ry="6.6"/><ellipse cx="68.9" cy="208.1" rx="6.2" ry="6.6"/><ellipse cx="68.9" cy="237.6" rx="6.2" ry="6.6"/></g><g id="Layer_9"><path class="st2" d="M68.1 67.4h-13c-1.7 0-3.1-1.4-3.1-3.1 0-1.7 1.4-3.1 3.1-3.1H68c1.7 0 3.1 1.4 3.1 3.1.1 1.7-1.3 3.1-3 3.1zM68.1 93.5h-13c-1.7 0-3.1-1.4-3.1-3.1 0-1.7 1.4-3.1 3.1-3.1H68c1.7 0 3.1 1.4 3.1 3.1.1 1.7-1.3 3.1-3 3.1zM68.1 122.8h-13c-1.7 0-3.1-1.4-3.1-3.1 0-1.7 1.4-3.1 3.1-3.1H68c1.7 0 3.1 1.4 3.1 3.1.1 1.7-1.3 3.1-3 3.1zM68.1 153.1h-13c-1.7 0-3.1-1.4-3.1-3.1 0-1.7 1.4-3.1 3.1-3.1H68c1.7 0 3.1 1.4 3.1 3.1.1 1.7-1.3 3.1-3 3.1zM68.1 181.8h-13c-1.7 0-3.1-1.4-3.1-3.1 0-1.7 1.4-3.1 3.1-3.1H68c1.7 0 3.1 1.4 3.1 3.1.1 1.7-1.3 3.1-3 3.1zM68.1 211.3h-13c-1.7 0-3.1-1.4-3.1-3.1 0-1.7 1.4-3.1 3.1-3.1H68c1.7 0 3.1 1.4 3.1 3.1.1 1.7-1.3 3.1-3 3.1zM68.1 240.7h-13c-1.7 0-3.1-1.4-3.1-3.1 0-1.7 1.4-3.1 3.1-3.1H68c1.7 0 3.1 1.4 3.1 3.1.1 1.7-1.3 3.1-3 3.1z"/></g></g></switch></svg>