<svg xmlns="http://www.w3.org/2000/svg" viewBox="0 0 300 300"><style>.st2{fill:#263d8e}</style><switch><g><path d="M243.3 296.6H60.6a22.2 22.2 0 01-22.1-22.1V25.8c0-12.1 9.9-22.1 22.1-22.1h182.7c12.1 0 22.1 9.9 22.1 22.1v248.7a22.3 22.3 0 01-22.1 22.1z" fill="#fdb61a" id="Layer_4"/><g id="Layer_8" opacity=".1"><ellipse cx="53.5" cy="67.3" rx="8.3" ry="8.9"/><ellipse cx="53.5" cy="32.3" rx="8.3" ry="8.9"/><ellipse cx="53.5" cy="106.7" rx="8.3" ry="8.9"/><ellipse cx="53.5" cy="146.2" rx="8.3" ry="8.9"/><ellipse cx="53.5" cy="185.6" rx="8.3" ry="8.9"/><ellipse cx="53.5" cy="225.1" rx="8.3" ry="8.9"/><ellipse cx="53.5" cy="264.5" rx="8.3" ry="8.9"/></g><g id="Layer_9"><path class="st2" d="M53.5 36.7H34a3.1 3.1 0 01-3.1-3.1v-2.1c0-1.7 1.4-3.1 3.1-3.1h19.4c1.7 0 3.1 1.4 3.1 3.1v2.1a3 3 0 01-3 3.1zM53.5 71.7H34a3.1 3.1 0 01-3.1-3.1v-2.1c0-1.7 1.4-3.1 3.1-3.1h19.4c1.7 0 3.1 1.4 3.1 3.1v2.1a3 3 0 01-3 3.1zM53.5 110.9H34a3.1 3.1 0 01-3.1-3.1v-2.1c0-1.7 1.4-3.1 3.1-3.1h19.4c1.7 0 3.1 1.4 3.1 3.1v2.1a3 3 0 01-3 3.1zM53.5 151.4H34a3.1 3.1 0 01-3.1-3.1v-2.1c0-1.7 1.4-3.1 3.1-3.1h19.4c1.7 0 3.1 1.4 3.1 3.1v2.1a3 3 0 01-3 3.1zM53.5 189.8H34a3.1 3.1 0 01-3.1-3.1v-2.1c0-1.7 1.4-3.1 3.1-3.1h19.4c1.7 0 3.1 1.4 3.1 3.1v2.1a3 3 0 01-3 3.1zM53.5 229.2H34a3.1 3.1 0 01-3.1-3.1V224c0-1.7 1.4-3.1 3.1-3.1h19.4c1.7 0 3.1 1.4 3.1 3.1v2.1a3 3 0 01-3 3.1zM53.5 268.7H34a3.1 3.1 0 01-3.1-3.1v-2.1c0-1.7 1.4-3.1 3.1-3.1h19.4c1.7 0 3.1 1.4 3.1 3.1v2.1a3 3 0 01-3 3.1z"/></g><g id="Layer_21"><path d="M123.3 128.9c-1.4-12.2 5.8-16.3 15.7-16.7a25 25 0 018.6.9c7.6 2.3 9.4 8.3 9.9 15.2.6 8.7 1.2 17.5 1.6 26.2.1 2.3.7 3.1 3.2 2.7 4.8-.6 9.5-1.5 14-3.5a22 22 0 0011.7-30.1 34.2 34.2 0 00-34.8-20 55.6 55.6 0 00-46.7 27.3c-3.1 5-7.6 6.2-12.5 4-5-2.3-7.5-7.4-5.8-12.6 3.1-10 9.9-17.4 18.4-22.9 25.7-16.5 53.4-22.1 82.7-11.8a41 41 0 0129 39.7 41.7 41.7 0 01-15.8 33.9 66.3 66.3 0 01-39.9 16.5c-2.4.2-2.7 1.1-2.4 3.1.9 8.9.4 17.8.8 26.7.5 10.8-3.3 13.7-15.1 14.3a28 28 0 01-12-2.7 9.8 9.8 0 01-6.4-9.3l-1.9-37.4-2.3-43.5z" fill="#263e92" id="TqEMDk.tif_8_"/></g></g></switch></svg>