<svg xmlns="http://www.w3.org/2000/svg" viewBox="0 0 300 300"><defs><style>.cls-1{fill:#fdb61a;}.cls-2{opacity:0.15;}.cls-3{fill:#263d8e;}</style></defs><title>Artboard 1</title><g id="Layer_4" data-name="Layer 4"><path class="cls-1" d="M228.5,19.8h-148V284.53h148c14.18,0,25.79-9.32,25.79-20.71V40.51C254.29,29.12,242.68,19.8,228.5,19.8Z"/></g><g id="Layer_7" data-name="Layer 7"><path class="cls-1" d="M69.64,284.75H80.52V19.58H69.64A20.8,20.8,0,0,0,48.9,40.32V264A20.8,20.8,0,0,0,69.64,284.75Z"/></g><g id="Layer_8" data-name="Layer 8" class="cls-2"><ellipse cx="62.41" cy="77.09" rx="7.54" ry="8.03"/><ellipse cx="62.41" cy="45.4" rx="7.54" ry="8.03"/><ellipse cx="62.41" cy="112.82" rx="7.54" ry="8.03"/><ellipse cx="62.41" cy="148.55" rx="7.54" ry="8.03"/><ellipse cx="62.41" cy="184.28" rx="7.54" ry="8.03"/><ellipse cx="62.41" cy="220.01" rx="7.54" ry="8.03"/><ellipse cx="62.41" cy="255.74" rx="7.54" ry="8.03"/></g><g id="Layer_9" data-name="Layer 9"><rect class="cls-3" x="42" y="41.86" width="23.2" height="7.53" rx="3.11" ry="3.11"/><rect class="cls-3" x="42" y="73.55" width="23.2" height="7.53" rx="3.11" ry="3.11"/><rect class="cls-3" x="42" y="109.05" width="23.2" height="7.53" rx="3.11" ry="3.11"/><rect class="cls-3" x="42" y="145.77" width="23.2" height="7.53" rx="3.11" ry="3.11"/><rect class="cls-3" x="42" y="180.51" width="23.2" height="7.53" rx="3.11" ry="3.11"/><rect class="cls-3" x="42" y="216.24" width="23.2" height="7.53" rx="3.11" ry="3.11"/><rect class="cls-3" x="42" y="251.97" width="23.2" height="7.53" rx="3.11" ry="3.11"/></g><g id="Layer_21" data-name="Layer 21"><rect class="cls-3" x="85.1" y="99.76" width="25.25" height="8.2" rx="3.01" ry="3.01"/><rect class="cls-3" x="85.1" y="62.66" width="25.25" height="8.2" rx="3.01" ry="3.01"/><rect class="cls-3" x="117.33" y="99.76" width="24.05" height="8.2" rx="3.01" ry="3.01"/><rect class="cls-3" x="110.02" y="124.48" width="25.22" height="8.2" rx="3.01" ry="3.01"/><rect class="cls-3" x="98.36" y="111.88" width="25.22" height="8.2" rx="3.01" ry="3.01"/><rect class="cls-3" x="111.42" y="173.8" width="17.38" height="8.2" rx="3.01" ry="3.01"/><rect class="cls-3" x="134.99" y="173.8" width="17.38" height="8.2" rx="3.01" ry="3.01"/><rect class="cls-3" x="165.32" y="124.46" width="25.22" height="8.2" rx="3.01" ry="3.01"/><rect class="cls-3" x="211.32" y="149.34" width="25.22" height="8.2" rx="3.01" ry="3.01"/><rect class="cls-3" x="174.64" y="161.42" width="24.94" height="8.2" rx="3.01" ry="3.01"/><rect class="cls-3" x="174.08" y="99.74" width="15.39" height="8.2" rx="3.01" ry="3.01"/><rect class="cls-3" x="111.42" y="210.95" width="15.39" height="8.2" rx="3.01" ry="3.01"/><rect class="cls-3" x="98.64" y="223.27" width="15.39" height="8.2" rx="3.01" ry="3.01"/><rect class="cls-3" x="85.01" y="235.71" width="15.39" height="8.2" rx="3.01" ry="3.01"/><rect class="cls-3" x="129.76" y="112.34" width="27.47" height="8.2" rx="3.01" ry="3.01"/><rect class="cls-3" x="173.13" y="186.12" width="27.47" height="8.2" rx="3.01" ry="3.01"/><rect class="cls-3" x="181.02" y="136.65" width="28.98" height="8.65" rx="3.17" ry="3.17"/><rect class="cls-3" x="142.74" y="149.11" width="35.19" height="8.65" rx="3.17" ry="3.17"/><rect class="cls-3" x="181.78" y="198.62" width="23.37" height="8.2" rx="3.01" ry="3.01"/><rect class="cls-3" x="190.77" y="112.34" width="18.88" height="8.2" rx="3.01" ry="3.01"/><rect class="cls-3" x="146.87" y="99.74" width="21.02" height="8.2" rx="3.01" ry="3.01"/><rect class="cls-3" x="116.64" y="62.66" width="27.04" height="8.2" rx="3.01" ry="3.01"/><rect class="cls-3" x="177.11" y="62.65" width="27.04" height="8.2" rx="3.01" ry="3.01"/><rect class="cls-3" x="149.96" y="62.66" width="21.02" height="8.2" rx="3.01" ry="3.01"/><rect class="cls-3" x="85.1" y="74.8" width="25.25" height="8.2" rx="3.01" ry="3.01"/><rect class="cls-3" x="116.64" y="74.8" width="27.04" height="8.2" rx="3.01" ry="3.01"/><rect class="cls-3" x="177.5" y="75.01" width="38.07" height="8.2" rx="3.01" ry="3.01"/><rect class="cls-3" x="150.53" y="75.01" width="21.02" height="8.2" rx="3.01" ry="3.01"/><rect class="cls-3" x="110.76" y="161.43" width="21.02" height="8.2" rx="3.01" ry="3.01"/><rect class="cls-3" x="110.76" y="136.86" width="21.02" height="8.2" rx="3.01" ry="3.01"/><rect class="cls-3" x="163.57" y="112.34" width="21.02" height="8.2" rx="3.01" ry="3.01"/><rect class="cls-3" x="215.97" y="111.9" width="21.02" height="8.2" rx="3.01" ry="3.01"/><rect class="cls-3" x="184.11" y="149.34" width="21.02" height="8.2" rx="3.01" ry="3.01"/><rect class="cls-3" x="123.91" y="186.12" width="21.02" height="8.2" rx="3.01" ry="3.01"/><rect class="cls-3" x="141.38" y="124.48" width="17.76" height="8.2" rx="3.01" ry="3.01"/><rect class="cls-3" x="111.23" y="149.34" width="24.76" height="8.2" rx="3.01" ry="3.01"/><rect class="cls-3" x="159.14" y="136.86" width="15.51" height="8.2" rx="3.01" ry="3.01"/><rect class="cls-3" x="137.97" y="136.86" width="14.91" height="8.2" rx="3.01" ry="3.01"/><rect class="cls-3" x="158.44" y="173.8" width="12.07" height="8.2" rx="3.01" ry="3.01"/><rect class="cls-3" x="151" y="186.12" width="16.28" height="8.2" rx="3.01" ry="3.01"/><rect class="cls-3" x="176.69" y="173.8" width="38.37" height="8.2" rx="3.01" ry="3.01"/><rect class="cls-3" x="123.91" y="198.62" width="29.14" height="8.2" rx="3.01" ry="3.01"/><rect class="cls-3" x="159.03" y="198.62" width="16.49" height="8.2" rx="3.01" ry="3.01"/><rect class="cls-3" x="137.31" y="161.48" width="31.13" height="8.2" rx="3.01" ry="3.01"/><rect class="cls-3" x="205.48" y="161.33" width="21.96" height="8.2" rx="3.01" ry="3.01"/><rect class="cls-3" x="159.03" y="198.62" width="16.49" height="8.2" rx="3.01" ry="3.01"/><rect class="cls-3" x="123.91" y="198.62" width="29.14" height="8.2" rx="3.01" ry="3.01"/><rect class="cls-3" x="173.13" y="186.12" width="27.47" height="8.2" rx="3.01" ry="3.01"/><rect class="cls-3" x="151" y="186.12" width="16.28" height="8.2" rx="3.01" ry="3.01"/><rect class="cls-3" x="110.02" y="124.48" width="25.22" height="8.2" rx="3.01" ry="3.01"/><rect class="cls-3" x="111.42" y="173.8" width="17.38" height="8.2" rx="3.01" ry="3.01"/><rect class="cls-3" x="111.42" y="210.95" width="15.39" height="8.2" rx="3.01" ry="3.01"/><rect class="cls-3" x="98.64" y="223.27" width="15.39" height="8.2" rx="3.01" ry="3.01"/><rect class="cls-3" x="85.01" y="235.71" width="15.39" height="8.2" rx="3.01" ry="3.01"/><rect class="cls-3" x="129.76" y="112.34" width="27.47" height="8.2" rx="3.01" ry="3.01"/><rect class="cls-3" x="190.77" y="112.34" width="18.88" height="8.2" rx="3.01" ry="3.01"/><rect class="cls-3" x="110.76" y="136.86" width="21.02" height="8.2" rx="3.01" ry="3.01"/><rect class="cls-3" x="163.57" y="112.34" width="21.02" height="8.2" rx="3.01" ry="3.01"/><rect class="cls-3" x="215.97" y="111.9" width="21.02" height="8.2" rx="3.01" ry="3.01"/><rect class="cls-3" x="123.91" y="186.12" width="21.02" height="8.2" rx="3.01" ry="3.01"/><rect class="cls-3" x="137.31" y="161.48" width="31.13" height="8.2" rx="3.01" ry="3.01"/></g></svg>