<svg xmlns:dc="http://purl.org/dc/elements/1.1/" xmlns:cc="http://creativecommons.org/ns#" xmlns:rdf="http://www.w3.org/1999/02/22-rdf-syntax-ns#" xmlns:svg="http://www.w3.org/2000/svg" xmlns="http://www.w3.org/2000/svg" xmlns:sodipodi="http://sodipodi.sourceforge.net/DTD/sodipodi-0.dtd" xmlns:inkscape="http://www.inkscape.org/namespaces/inkscape" version="1.1" x="0px" y="0px" viewBox="0 0 100 125"><g transform="translate(0,-952.36218)"><path style="font-size:medium;font-style:normal;font-variant:normal;font-weight:normal;font-stretch:normal;text-indent:0;text-align:start;text-decoration:none;line-height:normal;letter-spacing:normal;word-spacing:normal;text-transform:none;direction:ltr;block-progression:tb;writing-mode:lr-tb;text-anchor:start;baseline-shift:baseline;opacity:1;color:#000000;fill:#000000;fill-opacity:1;stroke:none;stroke-width:4.44445704999999960;marker:none;visibility:visible;display:inline;overflow:visible;enable-background:accumulate;font-family:Sans;-inkscape-font-specification:Sans" d="M 47.09375 21 A 3.0003 3.0003 0 0 0 46.40625 21.1875 L 4.90625 37.1875 A 3.0003 3.0003 0 0 0 4.90625 42.78125 L 19.1875 48.28125 L 19.1875 63.4375 A 3.0003 3.0003 0 0 0 21.03125 66.1875 L 46.3125 76.75 A 3.0003 3.0003 0 0 0 48.625 76.75 L 73.90625 66.1875 A 3.0003 3.0003 0 0 0 75.75 63.4375 L 75.75 48.3125 L 78.0625 47.40625 A 3.0003 3.0003 0 1 0 75.90625 41.8125 L 47.5 52.78125 L 14.34375 40 L 47.5 27.1875 L 85.9375 42.03125 L 85.9375 63.625 C 82.986049 64.8131 80.875 67.675457 80.875 71 C 80.875 75.3735 84.51372 78.96875 88.9375 78.96875 C 93.361279 78.96875 97 75.3735 97 71 C 97 67.67378 94.891296 64.811996 91.9375 63.625 L 91.9375 40 A 3.0003 3.0003 0 0 0 90.03125 37.1875 L 48.5625 21.1875 A 3.0003 3.0003 0 0 0 47.09375 21 z M 25.1875 50.59375 L 46.40625 58.78125 A 3.0003 3.0003 0 0 0 48.5625 58.78125 L 69.75 50.625 L 69.75 61.4375 L 47.46875 70.75 L 25.1875 61.4375 L 25.1875 50.59375 z M 88.9375 69 C 90.100045 69 90.96875 69.8507 90.96875 71 C 90.96875 72.1493 90.100045 73.03125 88.9375 73.03125 C 87.774954 73.03125 86.90625 72.1493 86.90625 71 C 86.90625 69.8507 87.774954 69 88.9375 69 z " transform="translate(0,952.36218)"/></g></svg>