<svg xmlns="http://www.w3.org/2000/svg" xmlns:xlink="http://www.w3.org/1999/xlink" version="1.1" x="0px" y="0px" viewBox="0 0 100 125" style="enable-background:new 0 0 100 100;" xml:space="preserve"><style type="text/css">
	.st0{fill:#231F20;}
	.st1{fill:#010101;}
	.st2{fill:#FFFFFF;}
</style><g><g><g><g><g><path class="st1" d="M65.2,41.7c-0.4,0-0.8-0.2-1-0.5l-5.3-5.3l-3.1,12l13.4,4.3l0.1,0c0.1,0,0.1,0,0.2,0.1l0,0       c0.1,0,0.1,0.1,0.2,0.1l0.1,0.1c0,0,0.1,0.1,0.1,0.1l0.2,0.3c0,0,0,0.1,0.1,0.1l0.1,0.4v14.2c0,0.7-0.6,1.3-1.3,1.3h-5.5       c-0.7,0-1.3-0.6-1.3-1.3v-7.6l-22-7.9l0,0l-0.4-0.1h0c-0.4-0.3-0.7-0.8-0.6-1.3l0-0.2l2.7-17.3l-8.5,4.2l-3.2,9.4       c-0.2,0.7-0.9,1-1.6,0.8l-3.7-1.3c-0.7-0.2-1-0.9-0.8-1.6l4.6-13.4c0.1-0.4,0.4-0.7,0.8-0.8l0,0h0c0.1-0.1,0.2-0.1,0.3-0.2       l14.2-6.9c0.2-0.1,0.4-0.1,0.6-0.1c0.1,0,0.2,0,0.2,0l14.7,2.3c0.1,0,0.2,0,0.3,0.1c0,0,0,0,0,0c0,0,0,0,0.1,0       c0.1,0.1,0.3,0.1,0.4,0.2l9.9,9.9c0,0,0.1,0.1,0.1,0.1h7.1c0.7,0,1.3,0.6,1.3,1.3v3.4c0,0.7-0.6,1.3-1.3,1.3H65.2z"/><path class="st1" d="M88.1,73.9v2.6c0,0.5-0.4,0.9-0.9,0.9H62.8c-0.5,0-0.9-0.4-0.9-0.9v-2.6c0-0.5,0.4-0.9,0.9-0.9h24.3       C87.7,73,88.1,73.4,88.1,73.9z"/><path class="st1" d="M74.4,81.6v2.6c0,0.5-0.4,0.9-0.9,0.9H49.2c-0.5,0-0.9-0.4-0.9-0.9v-2.6c0-0.5,0.4-0.9,0.9-0.9h24.3       C74,80.7,74.4,81.1,74.4,81.6z"/><path class="st1" d="M60.8,89.7v2.6c0,0.5-0.4,0.9-0.9,0.9H35.6c-0.5,0-0.9-0.4-0.9-0.9v-2.6c0-0.5,0.4-0.9,0.9-0.9h24.3       C60.4,88.8,60.8,89.2,60.8,89.7z"/><path class="st1" d="M53.8,6.5c4.2,0,7.6,3.4,7.6,7.6c0,4.2-3.4,7.6-7.6,7.6c-4.2,0-7.6-3.4-7.6-7.6C46.2,10,49.6,6.5,53.8,6.5       z"/><path class="st1" d="M51.9,59.8l-2.5,11.4c0,0.1-0.1,0.3-0.2,0.4c0,0,0,0,0,0.1c0,0-0.1,0.1-0.1,0.1l-8.6,11       c-0.4,0.5-1.2,0.6-1.8,0.2l-4.2-3.4c-0.5-0.4-0.6-1.2-0.2-1.8l5.6-7.2l3-14.1L51.9,59.8z"/><path class="st1" d="M36.9,57.3c0.7,0.2,1,1,0.8,1.6L32.9,72c-0.2,0.7-1,1-1.6,0.8L6.8,63.9c-0.7-0.2-1-1-0.8-1.6l4.8-13.2       c0.2-0.7,1-1,1.6-0.8L36.9,57.3z"/><path class="st1" d="M21.5,46.6l9.3,3.4c0.2,0.1,0.4,0.3,0.3,0.6l-0.8,2.2c-0.1,0.2-0.4,0.4-0.6,0.3l-9.3-3.4       c-0.2-0.1-0.4-0.3-0.3-0.6l0.8-2.2C21.1,46.6,21.3,46.5,21.5,46.6z"/></g></g></g></g></g></svg>