<svg xmlns="http://www.w3.org/2000/svg" data-name="Layer 1" viewBox="0 0 128 160" x="0px" y="0px"><title>Miscellaneous 17 final</title><path d="M121,0H7A7,7,0,0,0,7,14H8V86a2,2,0,0,0,2,2H77V84H12V14H116V72c.11.19.22.37.31.56L120,78.38V14h1a7,7,0,0,0,0-14Zm0,10H7A3,3,0,0,1,7,4H121a3,3,0,0,1,0,6Z"/><path d="M63.33,52H18a2,2,0,0,0,0,4H63.33a2,2,0,0,0,0-4Z"/><path d="M63.33,60H18a2,2,0,0,0,0,4H63.33a2,2,0,0,0,0-4Z"/><path d="M63.33,68H18a2,2,0,0,0,0,4H63.33a2,2,0,0,0,0-4Z"/><path d="M63.33,76H18a2,2,0,0,0,0,4H63.33a2,2,0,0,0,0-4Z"/><path d="M77.67,30.67a6,6,0,1,0-5.72-4.19l-10.6,8.46a6,6,0,0,0-7.29,0L51.18,32a6,6,0,1,0-10.93.23L35.54,37a5.92,5.92,0,0,0-4,.1l-5.21-7.62a6,6,0,1,0-3.41,2.09l5.57,8.14a6,6,0,1,0,10.24-.23l4.37-4.37A5.95,5.95,0,0,0,48.47,35l3.35,3.35a6,6,0,1,0,11.69,0l10.85-8.66A6,6,0,0,0,77.67,30.67Zm0-8a2,2,0,1,1-2,2A2,2,0,0,1,77.67,22.67Zm-56,5a2,2,0,1,1,2-2A2,2,0,0,1,21.67,27.67Zm12,17a2,2,0,1,1,2-2A2,2,0,0,1,33.67,44.67Zm12-13a2,2,0,1,1,2-2A2,2,0,0,1,45.67,31.67Zm12,10a2,2,0,1,1,2-2A2,2,0,0,1,57.67,41.67Z"/><path d="M106.89,37c-8.44-6.55-15.59-3-18.27-1.13-2.5,1.72-2.85,2.59-2.55,3.63a5,5,0,0,1,0,.54A7.38,7.38,0,0,0,86.44,43L86,47.82c0,.06,0,.12,0,.18a11,11,0,0,0,22,0c0-.06,0-.12,0-.18l-.22-2.41a2,2,0,0,0,.2-.62C108.88,38.55,107.39,37.39,106.89,37ZM97,55a7,7,0,0,1-7-6.92l.2-2.2a13.08,13.08,0,0,0,4.07.06A9.14,9.14,0,0,0,100,49.17a7.36,7.36,0,0,0,.75,0,7.63,7.63,0,0,0,3.26-.76A7,7,0,0,1,97,55Zm7.1-11.45a5,5,0,0,1-3.71,1.64c-2.09-.2-3.58-2.44-3.59-2.45a2,2,0,0,0-1.68-.92l-.32,0c-3.5.57-4.4,0-4.54-.16s-.22-.94-.21-1.52c0-.13,0-.26,0-.39,1.66-1.42,7.07-5.08,14.1.18A15,15,0,0,1,104.1,43.55Z"/><path d="M122,89l-9.19-14.48a6.45,6.45,0,0,0-1-1.48A16,16,0,0,0,84,69.64l-1.52-.09L79.11,59.13A6.07,6.07,0,0,0,77,55.34,5.74,5.74,0,0,0,72.71,54a6,6,0,0,0-5.18,6.58,1.64,1.64,0,0,0,.06.32l4.27,15.72A6,6,0,0,0,74,80.55a5.68,5.68,0,0,0,4.09,1.27l2.87,0V95a4,4,0,0,0,1.3,2.93l2.34,23.27c.36,3.6,1,5.35,2.12,6.26a3,3,0,0,0,1.1.54h4.73a3.9,3.9,0,0,0,3.83-3.36l.51-3.28.61,3.37a3.91,3.91,0,0,0,3.81,3.27H106a2.79,2.79,0,0,0,1.07-.5c1.16-.87,1.76-2.56,2.24-6.3l2.34-23.27a4,4,0,0,0,1-1.58,6.12,6.12,0,0,0,1.63,1,5.9,5.9,0,0,0,2.32.47,5.78,5.78,0,0,0,2.34-.49,6.17,6.17,0,0,0,3.11-8.09A1.6,1.6,0,0,0,122,89Zm-16.61,31.76a18.84,18.84,0,0,1-.63,3.26h-3.29l-2.7-15a2,2,0,0,0-2-1.65h0a2,2,0,0,0-2,1.69l-2.36,15h-3l-.33,0a16.34,16.34,0,0,1-.55-3.22L86.43,99h21.14ZM109,95H85V81.93l4.69.07h0a2,2,0,0,0,0-4l-11.67-.19-.25,0a1.72,1.72,0,0,1-1.28-.39,2,2,0,0,1-.73-1.37,1.65,1.65,0,0,0-.06-.32L71.5,60.07A2,2,0,0,1,73.15,58a1.75,1.75,0,0,1,1.3.4,2,2,0,0,1,.71,1.36,3.16,3.16,0,0,0,.09.42l3.91,11.9a2,2,0,0,0,1.78,1.37l11.44.67a2,2,0,1,0,.24-4l-3.45-.2A11.87,11.87,0,0,1,97,67a12,12,0,0,1,12,12Zm8.45-1.3a2,2,0,0,1-1.52,0,2.24,2.24,0,0,1-1.19-1.21,2.22,2.22,0,0,0-.21-.37L113,90V82.28l5.52,8.7A2.14,2.14,0,0,1,117.45,93.7Z"/></svg>