<svg xmlns:dc="http://purl.org/dc/elements/1.1/" xmlns:cc="http://creativecommons.org/ns#" xmlns:rdf="http://www.w3.org/1999/02/22-rdf-syntax-ns#" xmlns:svg="http://www.w3.org/2000/svg" xmlns="http://www.w3.org/2000/svg" xmlns:sodipodi="http://sodipodi.sourceforge.net/DTD/sodipodi-0.dtd" xmlns:inkscape="http://www.inkscape.org/namespaces/inkscape" version="1.1" x="0px" y="0px" viewBox="0 0 100 125"><g transform="translate(0,-952.36218)"><path style="text-indent:0;text-transform:none;direction:ltr;block-progression:tb;baseline-shift:baseline;color:#000000;enable-background:accumulate;" d="M 41.6875,957.36625 A 3.0003,3.0001643 0 0 0 39,960.36612 l 0,4.99977 -3,0 a 3.0003,3.0001643 0 0 0 -0.3125,0 A 3.0003,3.0001643 0 0 0 33,968.36575 l 0,25.99883 a 3.0003,3.0001643 0 0 0 3,2.99986 l 3,0 0,1.99991 -14,0 a 3.0003,3.0001643 0 0 0 -0.3125,0 3.0003,3.0001643 0 0 0 -1.5,0.59372 l -17,12.99943 a 3.0003,3.0001643 0 0 0 0,4.781 l 17,12.9994 a 3.0003,3.0001643 0 0 0 1.8125,0.625 l 14,0 0,12.9994 a 3.0003,3.0001643 0 0 0 3,2.9999 l 16,0 a 3.0003,3.0001643 0 0 0 3,-2.9999 l 0,-12.9994 3,0 a 3.0003,3.0001643 0 0 0 3,-2.9999 l 0,-25.9988 a 3.0003,3.0001643 0 0 0 -3,-2.99985 l -3,0 0,-1.99991 14,0 a 3.0003,3.0001643 0 0 0 1.8125,-0.62497 l 17,-12.99941 a 3.0003,3.0001643 0 0 0 0,-4.78104 l -17,-12.99941 A 3.0003,3.0001643 0 0 0 75,965.36589 l -14,0 0,-4.99977 a 3.0003,3.0001643 0 0 0 -3,-2.99987 l -16,0 a 3.0003,3.0001643 0 0 0 -0.3125,0 z m 3.3125,5.99973 10,0 0,1.99991 -10,0 0,-1.99991 z m -6,7.99964 35,0 13.0625,9.99955 -13.09375,9.99954 -34.96875,0 0,-19.99909 z m 6,25.99882 10,0 0,1.99991 -10,0 0,-1.99991 z m -19,7.99966 35,0 0,19.9991 -34.96875,0 L 12.9375,1015.3636 26,1005.3641 z m 19,25.9988 10,0 0,9.9996 -10,0 0,-9.9996 z" fill="#000000" fill-opacity="1" stroke="none" marker="none" visibility="visible" display="inline" overflow="visible"/></g></svg>